# xmcd CD database file
#
# Track frame offsets:
#	150
#	13557
#	23092
#	37111
#	46364
#	65647
#	80728
#	93565
#	112434
#	128846
#	141845
#	160867
#	174347
#	188004
#	202440
#	208814
#	222652
#	236053
#
# Disc length: 3292 seconds
#
# Revision: 0
# Processed by: cddbd v1.5.2PL0 Copyright (c) Steve Scherf et al.
# Submitted via: CDex 1.51
#
DISCID=1a0cda12
DTITLE=Artistas originales de la Salsa Cubana - Artistas originales de la Salsa Cubana
DYEAR=2003
DGENRE=Salsa
TTITLE0=Imágenes-Doris de la Torre
TTITLE1=Ausencia-Bola de Nieve
TTITLE2=Veinte años-Maria Teresa Vera
TTITLE3=Pensando en tí-Los Rufinos
TTITLE4=El bombín de barreto-Frank Emilio Flynn
TTITLE5=Flor de Yumuri-Felix Guerrero
TTITLE6=La última noche-Los camperos
TTITLE7=Guantanamera-Evaristo Quintanales
TTITLE8=No bailo con Lola-Willy Chirino
TTITLE9=A Santa Bárbara (Que Viva Chango)- Gina Martín
TTITLE10=Bacunayagua- Orquesta suprema
TTITLE11=Que linda es mi Habana- Velia Martínez
TTITLE12=La renuncia- Rubén Ríos
TTITLE13=Ya ves, así pienso yo- Bobby Jiménez
TTITLE14=Jugando, jugando- Zoraida Marrero
TTITLE15=Cubano soy- Arrmando Orefiche
TTITLE16=Importancías- Orquesta Sublime
TTITLE17=Fuí culpable- Puntillita
EXTD=YEAR: 2003
EXTT0=
EXTT1=
EXTT2=
EXTT3=
EXTT4=
EXTT5=
EXTT6=
EXTT7=
EXTT8=
EXTT9=
EXTT10=
EXTT11=
EXTT12=
EXTT13=
EXTT14=
EXTT15=
EXTT16=
EXTT17=
PLAYORDER=
